<svg xmlns="http://www.w3.org/2000/svg" version="1.1" xmlns:xlink="http://www.w3.org/1999/xlink" xmlns:svgjs="http://svgjs.com/svgjs" width="1000" height="1000"><rect width="1000" height="1000" rx="200" ry="200" fill="#020c17"></rect><g transform="matrix(1,0,0,1,0,0)"><svg xmlns="http://www.w3.org/2000/svg" version="1.1" xmlns:xlink="http://www.w3.org/1999/xlink" xmlns:svgjs="http://svgjs.com/svgjs" width="210mm" height="297mm"><svg width="210mm" height="297mm" viewBox="0 0 210 297" version="1.1" id="svg5" inkscape:version="1.1.2 (0a00cf5339, 2022-02-04)" sodipodi:docname="assorted folk.svg" xmlns:inkscape="http://www.inkscape.org/namespaces/inkscape" xmlns:sodipodi="http://sodipodi.sourceforge.net/DTD/sodipodi-0.dtd" xmlns="http://www.w3.org/2000/svg" xmlns:svg="http://www.w3.org/2000/svg">
  <sodipodi:namedview id="namedview7" pagecolor="#505050" bordercolor="#eeeeee" borderopacity="1" inkscape:pageshadow="0" inkscape:pageopacity="0" inkscape:pagecheckerboard="0" inkscape:document-units="mm" showgrid="false" inkscape:zoom="0.45446742" inkscape:cx="1008.8732" inkscape:cy="1097.9885" inkscape:window-width="2401" inkscape:window-height="1400" inkscape:window-x="520" inkscape:window-y="36" inkscape:window-maximized="0" inkscape:current-layer="layer1"></sodipodi:namedview>
  <defs id="defs2"></defs>
  <g inkscape:label="Layer 1" inkscape:groupmode="layer" id="layer1">
    <rect style="fill:#cbd8e6;fill-opacity:1;stroke:#cbd8e6;stroke-width:0.364941;stroke-opacity:1" id="rect846" width="25.189066" height="149.90182" x="11.252466" y="6.6327014"></rect>
    <rect style="fill:#cbd8e6;fill-opacity:1;stroke:#cbd8e6;stroke-width:0.339701;stroke-opacity:1" id="rect846-6" width="24.896082" height="131.41273" x="60.573444" y="164.12137"></rect>
    <rect style="fill:#cbd8e6;fill-opacity:1;stroke:#cbd8e6;stroke-width:0.28374;stroke-opacity:1" id="rect846-6-7" width="21.779324" height="104.80302" x="-181.1259" y="84.679138" transform="matrix(-1.0946833e-4,-0.99999999,0.99999996,-2.8583389e-4,0,0)"></rect>
    <rect style="fill:#cbd8e6;fill-opacity:1;stroke:#cbd8e6;stroke-width:0.234769;stroke-opacity:1" id="rect846-6-7-2" width="21.398869" height="73.02536" x="-235.59041" y="84.752678" transform="matrix(-7.7632163e-5,-1,0.99999992,-4.017799e-4,0,0)"></rect>
    <rect style="fill:#cbd8e6;fill-opacity:1;stroke:#cbd8e6;stroke-width:0.376145;stroke-opacity:1" id="rect846-3" width="24.292519" height="165.12451" x="3.7207267" y="19.82353" transform="matrix(0.93052368,-0.36623172,0.52334524,0.85212074,0,0)"></rect>
    <rect style="fill:#cbd8e6;fill-opacity:1;stroke:#cbd8e6;stroke-width:0.364941;stroke-opacity:1" id="rect1766" width="22.604761" height="8.8966904" x="100.25389" y="147.33871"></rect>
    <path sodipodi:type="spiral" style="fill:#cbd8e6;fill-opacity:1;fill-rule:evenodd;stroke:#cbd8e6;stroke-opacity:1" id="path3041" sodipodi:cx="191.00528" sodipodi:cy="508.53857" sodipodi:expansion="1" sodipodi:revolution="3" sodipodi:radius="21.778305" sodipodi:argument="-17.997324" sodipodi:t0="0" d="m 191.00528,508.53857 c 0.71882,0.82196 -0.75333,1.37448 -1.36614,1.19473 -1.66066,-0.48711 -1.78713,-2.66444 -1.02332,-3.927 1.36627,-2.25843 4.52592,-2.32223 6.48787,-0.85192 2.87925,2.15776 2.87515,6.41336 0.68051,9.04875 -2.92512,3.51255 -8.31011,3.43577 -11.60961,0.50909 -4.15209,-3.68292 -4.00041,-10.21131 -0.33769,-14.17047 4.43605,-4.79508 12.11503,-4.56738 16.73134,-0.16629 5.44017,5.18654 5.13581,14.02032 -0.005,19.29222 -5.93541,6.0866 -15.92666,5.7052 -21.85308,-0.17654 -6.73398,-6.6832 -6.27529,-17.83373 0.34794,-24.41394 7.43026,-7.38201 19.74134,-6.84587 26.97482,0.51934 8.03052,8.17679 7.41681,21.64936 -0.69076,29.53569" transform="matrix(0.69194175,-0.70025838,0.82126258,0.61354672,-488.18208,-14.236013)"></path>
    <path sodipodi:type="spiral" style="fill:#cbd8e6;fill-opacity:1;fill-rule:evenodd;stroke:#cbd8e6;stroke-opacity:1" id="path3041-9" sodipodi:cx="191.00528" sodipodi:cy="508.53857" sodipodi:expansion="1" sodipodi:revolution="3" sodipodi:radius="21.778305" sodipodi:argument="-17.997324" sodipodi:t0="0" transform="matrix(0.77171237,0.60234637,-0.66344626,0.73137853,378.70854,-327.07848)" d="m 191.00528,508.53857 c 0.71882,0.82196 -0.75333,1.37448 -1.36614,1.19473 -1.66066,-0.48711 -1.78713,-2.66444 -1.02332,-3.927 1.36627,-2.25843 4.52592,-2.32223 6.48787,-0.85192 2.87925,2.15776 2.87515,6.41336 0.68051,9.04875 -2.92512,3.51255 -8.31011,3.43577 -11.60961,0.50909 -4.15209,-3.68292 -4.00041,-10.21131 -0.33769,-14.17047 4.43605,-4.79508 12.11503,-4.56738 16.73134,-0.16629 5.44017,5.18654 5.13581,14.02032 -0.005,19.29222 -5.93541,6.0866 -15.92666,5.7052 -21.85308,-0.17654 -6.73398,-6.6832 -6.27529,-17.83373 0.34794,-24.41394 7.43026,-7.38201 19.74134,-6.84587 26.97482,0.51934 8.03052,8.17679 7.41681,21.64936 -0.69076,29.53569"></path>
    <path sodipodi:type="spiral" style="fill:#cbd8e6;fill-opacity:1;fill-rule:evenodd;stroke:#cbd8e6;stroke-opacity:1" id="path3041-9-2" sodipodi:cx="191.00528" sodipodi:cy="508.53857" sodipodi:expansion="1" sodipodi:revolution="3" sodipodi:radius="21.778305" sodipodi:argument="-17.997324" sodipodi:t0="0" transform="matrix(0.77171237,0.58462475,-0.66344626,0.70986064,347.64732,-257.52567)" d="m 191.00528,508.53857 c 0.71882,0.82196 -0.75333,1.37448 -1.36614,1.19473 -1.66066,-0.48711 -1.78713,-2.66444 -1.02332,-3.927 1.36627,-2.25843 4.52592,-2.32223 6.48787,-0.85192 2.87925,2.15776 2.87515,6.41336 0.68051,9.04875 -2.92512,3.51255 -8.31011,3.43577 -11.60961,0.50909 -4.15209,-3.68292 -4.00041,-10.21131 -0.33769,-14.17047 4.43605,-4.79508 12.11503,-4.56738 16.73134,-0.16629 5.44017,5.18654 5.13581,14.02032 -0.005,19.29222 -5.93541,6.0866 -15.92666,5.7052 -21.85308,-0.17654 -6.73398,-6.6832 -6.27529,-17.83373 0.34794,-24.41394 7.43026,-7.38201 19.74134,-6.84587 26.97482,0.51934 8.03052,8.17679 7.41681,21.64936 -0.69076,29.53569"></path>
  </g>
</svg></svg></g></svg>